<svg preserveAspectRatio="xMidYMid meet" data-bbox="29.5 43.5 140.999 113.002" viewBox="29.5 43.5 140.999 113.002" height="200" width="200" xmlns="http://www.w3.org/2000/svg" data-type="shape" role="presentation" aria-hidden="true" aria-label="">
    <g>
        <path d="M29.5 73.729c0-2.19 1.791-3.966 4-3.966h59.901c2.48 0 4.886-.987 6.621-2.71a9.053 9.053 0 0 0 2.7-6.489 9.044 9.044 0 0 0-2.739-6.469c-3.641-3.574-9.547-3.557-13.168.038a4.026 4.026 0 0 1-5.657.005 3.944 3.944 0 0 1-.005-5.609c6.725-6.679 17.695-6.709 24.459-.07 3.281 3.22 5.096 7.511 5.109 12.082.015 4.571-1.774 8.873-5.037 12.114-3.226 3.206-7.694 5.039-12.268 5.039H33.5c-2.209 0-4-1.775-4-3.965zm134.971-4.55c-8.03-7.951-21.112-7.966-29.162-.038a3.944 3.944 0 0 0-.019 5.609 4.026 4.026 0 0 0 5.657.018c4.932-4.86 12.949-4.849 17.871.022 2.378 2.355 3.686 5.482 3.682 8.805-.004 3.325-1.32 6.448-3.705 8.798a12.634 12.634 0 0 1-8.894 3.641H33.5c-2.209 0-4 1.776-4 3.966s1.791 3.966 4 3.966h116.408c5.484-.01 10.643-2.121 14.525-5.946 3.905-3.846 6.06-8.964 6.066-14.413.008-5.449-2.133-10.573-6.028-14.428zm-51.084 53.128H33.5c-2.209 0-4 1.776-4 3.966 0 2.19 1.791 3.966 4 3.966h79.871c2.465 0 4.871.987 6.606 2.71a9.045 9.045 0 0 1 2.699 6.488 9.05 9.05 0 0 1-2.739 6.471c-3.64 3.571-9.547 3.557-13.167-.039a4.026 4.026 0 0 0-5.657-.005 3.944 3.944 0 0 0-.005 5.609c3.375 3.352 7.819 5.029 12.266 5.029 4.411 0 8.824-1.652 12.192-4.958 3.281-3.221 5.097-7.513 5.11-12.084.014-4.571-1.775-8.872-5.037-12.113-3.226-3.207-7.694-5.04-12.252-5.04z"></path>
    </g>
</svg>