<svg preserveAspectRatio="xMidYMid meet" data-bbox="20 30 160 140" viewBox="20 30 160 140" height="200" width="200" xmlns="http://www.w3.org/2000/svg" data-type="color" role="presentation" aria-hidden="true" aria-label="">
    <g>
        <path d="M84.762 88.545a3.814 3.814 0 0 1-3.81-3.818c0-7.72 6.266-14 13.968-14 2.104 0 3.81 1.709 3.81 3.818s-1.705 3.818-3.81 3.818c-3.501 0-6.349 2.855-6.349 6.364a3.813 3.813 0 0 1-3.809 3.818z" fill="#112F5B" data-color="1"></path>
        <path d="M155.873 88.545a3.814 3.814 0 0 1-3.81-3.818c0-3.509-2.848-6.364-6.349-6.364-2.104 0-3.81-1.709-3.81-3.818s1.705-3.818 3.81-3.818c7.702 0 13.968 6.28 13.968 14a3.812 3.812 0 0 1-3.809 3.818z" fill="#112F5B" data-color="1"></path>
        <path d="M84.762 144.545a3.814 3.814 0 0 1-3.81-3.818v-56a3.813 3.813 0 0 1 3.81-3.818 3.814 3.814 0 0 1 3.81 3.818v56a3.815 3.815 0 0 1-3.81 3.818z" fill="#112F5B" data-color="1"></path>
        <path d="M155.873 144.545a3.814 3.814 0 0 1-3.81-3.818v-56c0-2.109 1.705-3.818 3.81-3.818s3.81 1.709 3.81 3.818v56a3.814 3.814 0 0 1-3.81 3.818z" fill="#112F5B" data-color="1"></path>
        <path d="M145.714 78.364H94.921c-2.104 0-3.81-1.709-3.81-3.818s1.705-3.818 3.81-3.818h50.794c2.104 0 3.81 1.709 3.81 3.818s-1.707 3.818-3.811 3.818z" fill="#112F5B" data-color="1"></path>
        <path d="M110.159 58a3.814 3.814 0 0 1-3.81-3.818V33.818c0-2.109 1.705-3.818 3.81-3.818s3.81 1.709 3.81 3.818v20.364a3.815 3.815 0 0 1-3.81 3.818z" fill="#112F5B" data-color="1"></path>
        <path d="M130.476 58a3.814 3.814 0 0 1-3.81-3.818V33.818a3.813 3.813 0 0 1 3.81-3.818 3.814 3.814 0 0 1 3.81 3.818v20.364a3.814 3.814 0 0 1-3.81 3.818z" fill="#112F5B" data-color="1"></path>
        <path d="M130.476 37.636h-20.317a3.814 3.814 0 0 1-3.81-3.818 3.813 3.813 0 0 1 3.81-3.818h20.317a3.814 3.814 0 0 1 3.81 3.818 3.814 3.814 0 0 1-3.81 3.818z" fill="#112F5B" data-color="1"></path>
        <path d="M110.159 37.636H84.762a3.814 3.814 0 0 1-3.81-3.818A3.813 3.813 0 0 1 84.762 30h25.397a3.814 3.814 0 0 1 3.81 3.818 3.815 3.815 0 0 1-3.81 3.818z" fill="#112F5B" data-color="1"></path>
        <path d="M135.556 58H105.08a3.814 3.814 0 0 1-3.81-3.818 3.813 3.813 0 0 1 3.81-3.818h30.476a3.814 3.814 0 0 1 3.81 3.818 3.815 3.815 0 0 1-3.81 3.818z" fill="#112F5B" data-color="1"></path>
        <path d="M105.079 78.364a3.814 3.814 0 0 1-3.81-3.818V54.182a3.813 3.813 0 0 1 3.81-3.818 3.814 3.814 0 0 1 3.81 3.818v20.364a3.814 3.814 0 0 1-3.81 3.818z" fill="#112F5B" data-color="1"></path>
        <path d="M135.556 78.364a3.814 3.814 0 0 1-3.81-3.818V54.182c0-2.109 1.705-3.818 3.81-3.818s3.81 1.709 3.81 3.818v20.364a3.815 3.815 0 0 1-3.81 3.818z" fill="#112F5B" data-color="1"></path>
        <path d="M44.127 144.545a3.814 3.814 0 0 1-3.81-3.818V94.909c0-2.109 1.705-3.818 3.81-3.818s3.81 1.709 3.81 3.818v45.818a3.814 3.814 0 0 1-3.81 3.818z" fill="#112F5B" data-color="1"></path>
        <path d="M84.762 98.727H44.127a3.814 3.814 0 0 1-3.81-3.818 3.813 3.813 0 0 1 3.81-3.818h40.635a3.814 3.814 0 0 1 3.81 3.818 3.815 3.815 0 0 1-3.81 3.818z" fill="#112F5B" data-color="1"></path>
        <path d="M33.968 170C26.266 170 20 163.72 20 156c0-2.109 1.705-3.818 3.81-3.818s3.81 1.709 3.81 3.818c0 3.509 2.848 6.364 6.349 6.364 2.104 0 3.81 1.709 3.81 3.818S36.072 170 33.968 170z" fill="#112F5B" data-color="1"></path>
        <path d="M23.81 159.818A3.814 3.814 0 0 1 20 156v-15.273c0-2.109 1.705-3.818 3.81-3.818s3.81 1.709 3.81 3.818V156a3.815 3.815 0 0 1-3.81 3.818z" fill="#112F5B" data-color="1"></path>
        <path d="M166.032 170H33.968c-2.104 0-3.81-1.709-3.81-3.818s1.705-3.818 3.81-3.818h132.064c2.104 0 3.81 1.709 3.81 3.818s-1.706 3.818-3.81 3.818z" fill="#112F5B" data-color="1"></path>
        <path d="M176.19 159.818a3.814 3.814 0 0 1-3.81-3.818v-15.273c0-2.109 1.705-3.818 3.81-3.818s3.81 1.709 3.81 3.818V156a3.813 3.813 0 0 1-3.81 3.818z" fill="#112F5B" data-color="1"></path>
        <path d="M176.19 144.545H23.81a3.814 3.814 0 0 1-3.81-3.818 3.813 3.813 0 0 1 3.81-3.818h152.38a3.814 3.814 0 0 1 3.81 3.818 3.813 3.813 0 0 1-3.81 3.818z" fill="#112F5B" data-color="1"></path>
        <path d="M166.032 170c-2.104 0-3.81-1.709-3.81-3.818s1.705-3.818 3.81-3.818c3.501 0 6.349-2.855 6.349-6.364 0-2.109 1.705-3.818 3.81-3.818S180 153.891 180 156c0 7.72-6.266 14-13.968 14z" fill="#112F5B" data-color="1"></path>
    </g>
</svg>