<svg preserveAspectRatio="xMidYMid meet" data-bbox="19.976 33.999 159.989 131.997" xmlns="http://www.w3.org/2000/svg" width="200" height="200" viewBox="19.976 33.999 159.989 131.997" data-type="color" role="presentation" aria-hidden="true" aria-label="">
    <g>
        <path fill="#262223" d="M89.329 89.344c5.006 0 9.742 1.852 13.37 5.157a19.778 19.778 0 0113.357-5.157c3.768 0 7.383 1.052 10.489 2.98-2.809-24.668-23.18-43.895-48.678-44.823l-3.881.005c-25.413.924-45.775 20.15-48.588 44.818a19.868 19.868 0 0110.485-2.982c4.997 0 9.733 1.852 13.366 5.16a19.768 19.768 0 0113.353-5.157c5.006 0 9.742 1.852 13.37 5.157a19.776 19.776 0 0113.357-5.158zm88.083 61.733c-4.214 0-8.437-.901-12.209-2.606-6.573-3.018-14.266-3.014-20.821-.005-7.586 3.429-16.859 3.402-24.382.005-6.577-3.018-14.262-3.014-20.821-.005a29.387 29.387 0 01-12.177 2.61c-2.872 0-5.753-.419-8.486-1.227-.018 14.008-.05 14.116-.108 14.324a2.553 2.553 0 01-3.164 1.72 2.536 2.536 0 01-1.828-2.518l.005-15.484c-6.262-2.426-13.343-2.227-19.444.574a29.387 29.387 0 01-12.177 2.61 2.544 2.544 0 01-2.548-2.541 2.542 2.542 0 012.548-2.538c3.516 0 6.897-.724 10.057-2.148 6.717-3.086 14.514-3.536 21.568-1.334v-13.759c-6.262-2.426-13.348-2.229-19.448.572a29.385 29.385 0 01-12.177 2.608 2.541 2.541 0 01-2.548-2.538 2.542 2.542 0 012.548-2.538c3.516 0 6.897-.724 10.057-2.148 6.717-3.085 14.518-3.536 21.568-1.334V99.132a14.687 14.687 0 00-10.804-4.709 14.705 14.705 0 00-11.403 5.371c-.963 1.177-2.971 1.179-3.939 0a14.71 14.71 0 00-11.394-5.373c-4.43 0-8.58 1.96-11.394 5.373a2.538 2.538 0 01-2.827.78 2.536 2.536 0 01-1.688-2.39c0-30.008 23.436-54.4 53.45-55.735V36.54a2.545 2.545 0 012.548-2.541 2.546 2.546 0 012.548 2.541v5.909c29.928 1.375 53.247 25.539 53.45 55.333a2.54 2.54 0 01-2.511 2.937c-.783 0-1.508-.33-2.003-.928a14.702 14.702 0 00-11.39-5.368 14.7 14.7 0 00-11.394 5.371c-.968 1.177-2.976 1.177-3.939 0a14.714 14.714 0 00-11.394-5.371 14.682 14.682 0 00-10.813 4.707v26.243a24.945 24.945 0 008.477 1.487c3.516 0 6.901-.724 10.062-2.148 7.856-3.608 17.179-3.61 25.057.005 6.177 2.789 13.897 2.819 20.141-.005 7.86-3.606 17.188-3.612 25.062.007 3.102 1.397 6.595 2.141 10.089 2.141a2.542 2.542 0 012.548 2.538 2.54 2.54 0 01-2.548 2.538c-4.214 0-8.437-.899-12.209-2.601-6.573-3.02-14.266-3.016-20.821-.007-7.586 3.428-16.859 3.402-24.382.007-6.577-3.02-14.262-3.016-20.821-.007a29.385 29.385 0 01-12.177 2.608c-2.872 0-5.744-.417-8.477-1.222l-.004 13.795a24.904 24.904 0 008.481 1.489c3.516 0 6.901-.724 10.062-2.148 7.856-3.608 17.179-3.61 25.057.005 6.177 2.789 13.897 2.819 20.141-.005 7.86-3.606 17.188-3.612 25.062.007 3.102 1.397 6.595 2.141 10.089 2.141a2.542 2.542 0 012.548 2.538 2.552 2.552 0 01-2.553 2.541zM160.85 89.813c-10.534 0-19.106-8.539-19.106-19.038 0-10.497 8.572-19.038 19.106-19.038 10.539 0 19.11 8.541 19.11 19.038 0 10.499-8.571 19.038-19.11 19.038zm0-32.997c-7.725 0-14.014 6.261-14.014 13.959 0 7.698 6.289 13.961 14.014 13.961 7.73 0 14.014-6.263 14.014-13.961s-6.285-13.959-14.014-13.959z" data-color="1"></path>
    </g>
</svg>